# xmcd
#
# Track frame offsets: 
#        150
#        16288
#        29623
#        42109
#        54550
#        73176
#        88879
#        102132
#        118694
#        136816
#
# Disc length: 2054 seconds
#
# Revision: 0
# Processed by: cddbd v1.5.1PL2 Copyright (c) Steve Scherf et al.
# Submitted via: ExactAudioCopy v0.95b3
#
DISCID=8608040a
DTITLE=Jace Everett - Jace Everett
DYEAR=2005
DGENRE=Country
TTITLE0=Everything I Want
TTITLE1=That's the Kind of Love I'm In
TTITLE2=Bad Things
TTITLE3=I Gotta Have It
TTITLE4=Half of My Mistakes
TTITLE5=The Other Kind
TTITLE6=A Little Less Lonely
TTITLE7=Cold
TTITLE8=Nowhere in the Neighborhood
TTITLE9=Between a Father and a Son
EXTD=
EXTT0=
EXTT1=
EXTT2=
EXTT3=
EXTT4=
EXTT5=
EXTT6=
EXTT7=
EXTT8=
EXTT9=
PLAYORDER=
